<svg xmlns="http://www.w3.org/2000/svg" width="341" height="108" viewBox="0 0 341 108" fill="none"><rect x="0.5" y="58.5" width="79" height="47" rx="4.5" stroke="white"></rect><path fill-rule="evenodd" clip-rule="evenodd" d="M68.4698 83.5918H65.4804C64.5782 83.5918 63.9229 83.8072 63.4587 84.1421V83.5918H59.037C58.3299 83.5918 57.4999 83.7666 57.1073 84.1421V83.5918H49.2112V84.1421C48.5828 83.6902 47.5224 83.5918 47.033 83.5918H41.8247V84.1421C41.3275 83.6621 40.2219 83.5918 39.548 83.5918H33.719L32.3851 85.031L31.1358 83.5918H22.4285V92.9952H30.9719L32.3464 91.5332L33.6411 92.9952L38.9074 92.9999V90.7878H39.4251C40.1239 90.7986 40.948 90.7706 41.675 90.4572V92.995H46.0187V90.5442H46.2283C46.4957 90.5442 46.522 90.5551 46.522 90.8216V92.9948H59.7174C60.5551 92.9948 61.4308 92.781 61.9157 92.3931V92.9948H66.1012C66.9722 92.9948 68.47 92.5613 68.47 92.5613C68.47 92.5613 68.4698 105.133 68.4698 83.5918Z" fill="white"></path><path fill-rule="evenodd" clip-rule="evenodd" d="M13.7601 81.3969L14.3824 79.9004H15.7756L16.3963 81.3969H21.8266V80.2528L22.3113 81.4018H25.1304L25.6151 80.2357V81.3969H39.1105L39.1042 78.9404H39.3653C39.5481 78.9467 39.6015 78.9636 39.6015 79.2645V81.3969H46.5814V80.8251C47.1444 81.1258 48.02 81.3969 49.1723 81.3969H52.1087L52.7372 79.9004H54.1304L54.7449 81.3969H60.4035V79.9754L61.2605 81.3969H65.7949V72H61.3073V73.1098L60.6789 72H56.0741V73.1098L55.4971 72H49.2771C48.2359 72 47.3207 72.1449 46.5814 72.5487V72H42.2891V72.5487C41.8186 72.1325 41.1776 72 40.4647 72H24.7832L23.731 74.4271L22.6505 72H17.7112V73.1098L17.1686 72H12.9562L11 76.4678V81.3969H13.7601Z" fill="white"></path><path fill-rule="evenodd" clip-rule="evenodd" d="M39.4968 89.4016C40.9087 89.4016 42.3097 89.0151 42.3097 87.143C42.3097 85.2767 40.8694 84.9229 39.5875 84.9229H34.426L32.3714 87.1319L30.384 84.9229H23.8872V91.6621H30.2855L32.3526 89.4311L34.3416 91.6621H37.4813V89.4016H39.4968ZM37.4813 88.033H39.5687C40.1894 88.033 40.5755 87.7259 40.5755 87.1431C40.5755 86.5537 40.1707 86.3168 39.5875 86.3168H37.4813V88.033ZM29.4678 90.2576H25.4963V88.9168H29.0426V87.5418H25.4963V86.3166H29.546L31.3129 88.2805L29.4678 90.2576ZM35.8724 91.0492L33.3924 88.3041L35.8724 85.6462V91.0492Z" fill="#09260A"></path><path fill-rule="evenodd" clip-rule="evenodd" d="M49.2178 89.096C49.08 88.8997 48.7861 88.6625 48.4265 88.5302C48.8517 88.362 49.5713 87.8131 49.5715 86.7374C49.5715 85.9686 49.2508 85.548 48.741 85.2409C48.2109 84.9588 47.6153 84.9229 46.7975 84.9229H43.0681V91.6621H44.6913V89.2006H46.4175C47.0068 89.2006 47.3666 89.2584 47.6026 89.4998C47.8729 89.7819 47.8682 90.2965 47.8645 90.6921C47.8641 90.736 47.8637 90.7784 47.8637 90.8189V91.6621H49.4854V90.3261C49.4789 89.7321 49.4459 89.425 49.2178 89.096ZM47.451 87.6916C47.2349 87.8194 46.9677 87.8304 46.6534 87.8304H44.6911V86.3168H46.6801C46.9677 86.3168 47.2555 86.3229 47.451 86.4385C47.6603 86.5476 47.7855 86.7563 47.7855 87.0447C47.7855 87.3331 47.6603 87.5654 47.451 87.6916Z" fill="#09260A"></path><path d="M62.0267 88.1077C62.3412 88.4323 62.5098 88.842 62.5098 89.5356C62.5098 90.9853 61.6013 91.6621 59.9723 91.6621H56.8261V90.2169H59.9596C60.266 90.2169 60.4833 90.1765 60.6194 90.0501C60.7305 89.9459 60.8102 89.7945 60.8102 89.6105C60.8102 89.4142 60.724 89.2584 60.6131 89.1649C60.4896 89.062 60.3192 89.0153 60.0379 89.0153C59.939 89.0119 59.8384 89.0092 59.7369 89.0065C58.2877 88.9672 56.6355 88.9224 56.6355 86.9295C56.6355 85.952 57.2515 84.9231 58.945 84.9231H62.1833V86.3574H59.2201C58.9264 86.3574 58.7354 86.3684 58.573 86.4791C58.396 86.5882 58.3304 86.7502 58.3304 86.964C58.3304 87.2182 58.4806 87.3912 58.6838 87.466C58.8542 87.5251 59.0373 87.5424 59.3125 87.5424L60.182 87.5657C61.0589 87.5871 61.6608 87.7383 62.0267 88.1077Z" fill="#09260A"></path><path d="M68.4701 86.357H65.5261C65.2322 86.357 65.0369 86.3679 64.8724 86.4787C64.702 86.5878 64.6364 86.7498 64.6364 86.9636C64.6364 87.2178 64.7803 87.3907 64.9896 87.4655C65.16 87.5247 65.3431 87.5419 65.6121 87.5419L66.4876 87.5653C67.371 87.5871 67.9607 87.7385 68.3203 88.1077C68.3755 88.1511 68.4121 88.199 68.4493 88.2476L68.4594 88.2607L68.4658 88.269L68.4701 88.2746V90.8C68.0777 91.3721 67.3131 91.6621 66.2781 91.6621H63.1586V90.217H66.2654C66.5736 90.217 66.7893 90.1765 66.9191 90.0501C67.0316 89.9459 67.1101 89.7945 67.1101 89.6106C67.1101 89.4142 67.0316 89.2584 66.9128 89.1649C66.7956 89.0621 66.625 89.0153 66.3437 89.0153C66.2445 89.012 66.1437 89.0092 66.0419 89.0065C64.5875 88.9672 62.9348 88.9226 62.9348 86.9295C62.9348 85.952 63.5573 84.9231 65.2524 84.9231H68.4699L68.4701 86.357Z" fill="#09260A"></path><path d="M50.4671 84.9229H55.8583V86.3165H52.0758V87.5418H55.766V88.9167H52.0758V90.2576L55.8583 90.2637V91.6621H50.4671V84.9229Z" fill="#09260A"></path><path fill-rule="evenodd" clip-rule="evenodd" d="M16.1804 77.1565L15.0748 74.4705L13.9755 77.1565H16.1804ZM40.5365 76.087C40.3145 76.2213 40.052 76.2258 39.7375 76.2258H37.7752V74.7293H39.7642C40.0457 74.7293 40.3394 74.7419 40.5302 74.8508C40.7397 74.9489 40.8693 75.1579 40.8693 75.4464C40.8693 75.7409 40.746 75.9778 40.5365 76.087ZM54.5354 77.1565L53.4175 74.4705L52.3058 77.1565H54.5354ZM28.4406 80.0637H26.7846L26.7785 74.7869L24.4363 80.0637H23.018L20.6696 74.7822V80.0637H17.3842L16.7636 78.5609H13.4003L12.7733 80.0637H11.0189L13.9115 73.3262H16.3115L19.0587 79.7053V73.3262H21.6951L23.8091 77.8968L25.751 73.3262H28.4404V80.0637H28.4406ZM35.0405 80.0637H29.6444V73.3262H35.0405V74.7292H31.2598V75.9437H34.9498V77.3247H31.2598V78.6703H35.0405V80.0637ZM42.6488 75.1407C42.6488 76.215 41.9297 76.7699 41.5106 76.9366C41.864 77.0707 42.1659 77.3077 42.3096 77.504C42.5377 77.8391 42.577 78.1384 42.577 78.7402V80.0637H40.9478L40.9417 79.2141C40.9417 78.8087 40.9806 78.2256 40.6867 77.9015C40.4507 77.6645 40.0909 77.6131 39.5093 77.6131H37.7753V80.0637H36.1602V73.3262H39.8754C40.701 73.3262 41.3092 73.3479 41.8314 73.6489C42.3424 73.9499 42.6488 74.3892 42.6488 75.1407ZM45.2338 80.0637H43.5856V73.3262H45.2338V80.0637ZM64.355 80.0637H62.066L59.0042 75.0068V80.0637H55.7145L55.0859 78.5609H51.7304L51.1205 80.0637H49.2304C48.4452 80.0637 47.4511 79.8906 46.8881 79.3185C46.3205 78.7465 46.0251 77.9716 46.0251 76.7464C46.0251 75.7471 46.2016 74.8337 46.8959 74.1118C47.4181 73.5741 48.2359 73.3262 49.349 73.3262H50.9128V74.7699H49.3818C48.7923 74.7699 48.4595 74.8572 48.1389 75.169C47.8635 75.4527 47.6745 75.989 47.6745 76.6952C47.6745 77.417 47.8184 77.9374 48.1187 78.2774C48.3674 78.5441 48.8193 78.6249 49.2444 78.6249H49.9699L52.2465 73.3264H54.6668L57.4017 79.6992V73.3264H59.8611L62.7005 78.0187V73.3264H64.355V80.0637Z" fill="#09260A"></path><rect x="87.5" y="58.5" width="79" height="47" rx="4.5" stroke="white"></rect><path fill-rule="evenodd" clip-rule="evenodd" d="M134.197 81.4922C134.19 77.1109 131.452 73.3744 127.593 71.8946V91.0891C131.452 89.6074 134.19 85.8743 134.197 81.4922ZM120.231 91.0854V71.8966C116.376 73.381 113.641 77.1122 113.631 81.4923C113.641 85.8713 116.376 89.6022 120.231 91.0854ZM123.914 65.2683C114.954 65.2718 107.695 72.5324 107.694 81.4922C107.695 90.4509 114.954 97.7104 123.914 97.7119C132.874 97.7104 140.134 90.4509 140.137 81.4922C140.134 72.5324 132.874 65.2718 123.914 65.2683ZM123.874 99.243C114.07 99.2896 106 91.3465 106 81.6773C106 71.11 114.07 63.8008 123.874 63.8027H128.469C138.158 63.8008 147 71.1065 147 81.6773C147 91.3431 138.158 99.243 128.469 99.243H123.874Z" fill="white"></path><rect x="174.5" y="58.5" width="79" height="47" rx="4.5" stroke="white"></rect><path d="M189.621 89.835C189.391 89.4612 189.077 88.8636 188.888 88.4237C187.773 85.8347 187.72 83.1556 188.662 80.5836C189.697 77.7631 191.675 75.6037 194.23 74.5041C197.444 73.1214 200.997 73.394 204.076 75.2212C206.033 76.3435 207.419 78.0763 208.472 80.5261L208.57 80.7642L208.752 81.2376C208.782 81.3139 208.811 81.3882 208.839 81.4593L189.621 89.835ZM196.039 78.6602C193.757 79.6409 192.581 81.7811 192.822 84.2907L202.488 80.1309C200.826 78.1775 198.662 77.5302 196.039 78.6602ZM207.429 90.2088L203.693 87.7111L203.688 87.7166L203.487 87.5816C202.911 88.5176 202.011 89.2756 200.875 89.768C198.715 90.7075 196.713 90.4659 195.275 89.205L195.143 89.406C195.141 89.4037 195.141 89.402 195.139 89.402L192.687 93.0703C193.295 93.4933 193.949 93.8517 194.635 94.138C197.344 95.2631 200.115 95.2111 202.846 94.0236C204.82 93.1678 206.37 91.8627 207.429 90.2088ZM215.557 69.1016V89.4963L218.727 90.7814L216.926 94.9854L213.425 93.528C212.64 93.1879 212.105 92.6673 211.7 92.0797C211.313 91.4807 211.024 90.6588 211.024 89.5519V69.1016H215.557ZM223.771 84.3008C223.773 82.5639 224.54 81.0066 225.753 79.9481L222.5 76.3207C220.294 78.271 218.904 81.1206 218.901 84.2957C218.898 87.4718 220.285 90.3246 222.49 92.2798L225.739 88.6488C224.531 87.5862 223.77 86.0335 223.771 84.3008ZM229.551 90.0894C228.91 90.0876 228.294 89.9818 227.718 89.7903L226.165 94.4096C227.226 94.7661 228.364 94.9603 229.546 94.9622C234.697 94.9672 238.998 91.3125 239.994 86.4538L235.219 85.4787C234.676 88.1123 232.344 90.0912 229.551 90.0894ZM229.565 73.6503C228.384 73.6489 227.247 73.8408 226.187 74.1941L227.727 78.8175C228.304 78.627 228.921 78.5217 229.561 78.5217C232.361 78.5245 234.694 80.5152 235.224 83.1561L240 82.1873C239.017 77.3218 234.72 73.6534 229.565 73.6503Z" fill="white"></path><rect x="261.5" y="58.5" width="79" height="47" rx="4.5" stroke="white"></rect><path d="M309.737 83.3795C309.541 85.0038 311.457 84.8108 312.14 84.1313C312.644 83.6292 312.785 82.7331 312.899 82.0064C312.903 81.9837 312.906 81.9611 312.91 81.9386C311.344 81.7438 309.9 82.0305 309.737 83.3795Z" fill="white"></path><path d="M320.057 83.1916C320.077 84.122 320.52 84.6832 321.412 84.6637C323.03 84.6284 323.296 82.8467 323.543 81.1949C323.614 80.7173 323.684 80.2505 323.784 79.84C323.297 79.671 322.816 79.5138 322.151 79.5894C320.724 79.7517 320.021 81.5621 320.057 83.1916Z" fill="white"></path><path d="M287.866 83.6301C288.003 84.9142 289.745 84.9258 290.454 84.1626C291.041 83.5306 291.528 81.9683 291.347 80.7171C291.139 79.2758 289.088 79.3804 288.39 80.2471C288.331 80.5465 288.281 80.862 288.23 81.189C288.193 81.4232 288.156 81.6632 288.113 81.9074C288.084 82.0709 288.047 82.235 288.01 82.3989C287.917 82.8147 287.824 83.2293 287.866 83.6301Z" fill="white"></path><path d="M288.39 79.4641C288.4 79.4555 288.411 79.4468 288.422 79.4382C288.424 79.4596 288.407 79.4625 288.39 79.4641Z" fill="white"></path><path d="M294.674 81.1243H297.785C298.067 79.9143 297.384 79.521 296.43 79.5581C295.416 79.5975 294.773 80.3969 294.674 81.1243Z" fill="white"></path><path fill-rule="evenodd" clip-rule="evenodd" d="M280.424 68H331C329.97 73.1634 328.959 78.2122 327.952 83.2408C327.734 84.3284 327.517 85.4151 327.299 86.5017C327.251 86.742 327.203 86.9833 327.155 87.225C326.889 88.56 326.621 89.9036 326.343 91.1115C325.637 94.1824 323.025 95 319.219 95H270C270.589 92.1369 271.158 89.2112 271.731 86.2676C272.43 82.6766 273.135 79.0587 273.886 75.4948C273.979 75.0534 274.062 74.6028 274.146 74.1513C274.304 73.2984 274.463 72.4422 274.688 71.6376C275.347 69.2784 277.63 68.1343 280.424 68ZM309.828 79.5623C309.885 79.3362 309.941 79.11 309.984 78.869C310.265 78.8607 310.586 78.8343 310.925 78.8065C312.47 78.6795 314.37 78.5235 314.45 79.9339C314.48 80.4562 314.359 81.0227 314.234 81.6056C314.179 81.8604 314.124 82.1184 314.081 82.3771C314.074 82.4181 314.067 82.4589 314.06 82.4996C313.9 83.45 313.753 84.3199 313.742 85.3842H312.602C312.584 85.0004 312.638 84.6896 312.694 84.3819C312.149 85.2708 310.572 85.9177 309.275 85.353C308.602 85.0596 308.251 84.0088 308.567 82.9409C309.038 81.3467 310.832 80.9749 313.033 81.1869L313.036 81.1803C313.133 80.9055 313.265 80.5341 313.187 80.1845C312.953 79.1237 310.519 79.7347 309.737 79.9339C309.766 79.8085 309.797 79.6854 309.828 79.5623ZM323.907 78.9629C324.104 78.0354 324.256 77.062 324.369 76.0499H325.694C325.547 76.8981 325.386 77.732 325.226 78.566C324.804 80.7527 324.383 82.9394 324.215 85.3842H323.014C323.019 85.1218 323.057 84.8938 323.096 84.6657C323.11 84.5821 323.124 84.4984 323.137 84.4131C323.121 84.3584 323.055 84.4661 322.988 84.5767C322.954 84.6328 322.92 84.6897 322.891 84.7265C322.777 84.8718 322.601 85.0813 322.429 85.1963C321.54 85.7908 319.778 85.6216 319.163 84.9143C318.806 84.5038 318.708 83.9284 318.701 83.3481C318.665 80.3479 320.658 77.9172 323.907 78.9629ZM288.422 79.4382C289.014 78.9519 290.38 78.4408 291.501 78.869C293.808 79.7502 292.482 84.2507 290.762 85.1963C289.928 85.6545 287.953 85.8812 287.651 84.6951C287.468 85.4655 287.351 86.3025 287.235 87.1395C287.18 87.5276 287.126 87.9157 287.065 88.2972H285.741C286.335 85.2054 286.899 82.0822 287.374 78.869H288.513C288.508 78.9735 288.488 79.0622 288.467 79.1508C288.446 79.2395 288.426 79.3282 288.421 79.4328C288.421 79.4348 288.421 79.4364 288.422 79.4382ZM294.181 79.7146C294.756 79.0987 295.565 78.8186 296.522 78.7437C297.614 78.6582 298.687 78.8883 298.987 79.7774C299.157 80.283 299.053 80.8281 298.953 81.3569C298.919 81.5324 298.886 81.7061 298.863 81.876C297.433 81.8387 295.948 81.8298 294.52 81.876C294.298 82.8379 294.302 83.9448 294.982 84.3819C295.883 84.9607 297.403 84.4958 298.278 84.1626C298.256 84.2969 298.23 84.4265 298.204 84.5561C298.16 84.7727 298.116 84.9893 298.093 85.2276C295.968 85.7536 293.311 85.8314 293.072 83.6614C292.905 82.1404 293.476 80.4702 294.181 79.7146ZM284.848 78.9629C284.845 78.9185 284.842 78.8742 284.878 78.869H286.203C285.746 80.9625 285.381 83.1498 285.063 85.3842H283.739C284.161 83.2972 284.556 81.1824 284.848 78.9629ZM316.915 79.9025C317.295 79.3038 318.27 78.3051 319.441 78.9002C319.389 79.0708 319.358 79.2624 319.326 79.4541C319.305 79.585 319.284 79.7159 319.256 79.84C317.182 79.2437 316.767 81.2268 316.483 83.035C316.448 83.259 316.411 83.4685 316.374 83.6714C316.274 84.2356 316.182 84.7491 316.175 85.3842H314.82C315.264 83.2772 315.644 81.1061 315.96 78.869H317.13C317.082 79.0205 317.055 79.1944 317.028 79.3682C317 79.5557 316.971 79.7431 316.915 79.9025ZM304.439 82.5964C304.408 82.999 304.44 83.5286 304.562 83.8493C304.982 84.953 306.79 84.6934 307.735 84.1939C307.706 84.3354 307.682 84.482 307.657 84.6286C307.626 84.8218 307.594 85.015 307.55 85.1963C305.82 85.804 303.683 85.7177 303.207 84.1313C302.8 82.7755 303.376 80.6209 304.254 79.6834C305.152 78.7257 306.844 78.5415 308.628 78.8377C308.609 78.9828 308.586 79.1235 308.563 79.2642C308.529 79.4722 308.494 79.6802 308.474 79.9025C307.387 79.516 306.023 79.4021 305.332 80.0906C304.832 80.5894 304.507 81.6913 304.439 82.5964ZM301.297 79.9653C301.725 79.2018 302.648 78.3866 303.823 78.869C303.807 79.0178 303.779 79.1539 303.751 79.29C303.715 79.4644 303.679 79.6388 303.669 79.84C302.426 79.3888 301.565 80.216 301.235 81.1869C300.941 82.0549 300.816 83.1767 300.701 84.2098C300.655 84.6227 300.611 85.0215 300.558 85.3842H299.233C299.287 85.0986 299.341 84.8134 299.394 84.5281C299.744 82.6763 300.094 80.8245 300.342 78.869H301.513C301.481 79.0134 301.456 79.1642 301.43 79.315C301.393 79.5387 301.355 79.7624 301.297 79.9653ZM281.86 79.9339C282.073 78.7104 282.286 77.4863 282.476 76.2378H284.016C283.41 79.2135 282.899 82.2856 282.414 85.3842H280.905C281.04 84.5105 281.198 83.6601 281.357 82.8098C281.476 82.1677 281.596 81.5257 281.706 80.8737C280.584 80.7651 279.211 80.8012 278.005 80.8329C277.881 80.8361 277.759 80.8393 277.639 80.8423C277.373 82.0878 277.173 83.4005 276.972 84.7133C276.938 84.9371 276.904 85.1608 276.869 85.3842H275.36C275.771 83.3037 276.129 81.1692 276.487 79.0346C276.644 78.1009 276.801 77.1671 276.962 76.2378H278.44C278.318 76.8299 278.212 77.4391 278.106 78.0483C277.998 78.6725 277.889 79.2968 277.763 79.9025C278.818 79.9825 279.922 79.9643 281.021 79.9462C281.301 79.9415 281.581 79.9369 281.86 79.9339ZM286.449 76.2378C286.838 76.5886 286.498 77.4312 286.234 77.616C286.066 77.7336 285.5 77.8689 285.248 77.616C284.989 77.3564 285.142 76.6575 285.31 76.4257C285.414 76.2816 285.567 76.1896 285.833 76.1439C286.12 76.0945 286.326 76.1267 286.449 76.2378Z" fill="white"></path><rect x="261.5" y="0.5" width="79" height="47" rx="4.5" stroke="white"></rect><rect x="279" y="10" width="3.41516" height="25.0445" fill="white"></rect><rect x="283.554" y="10" width="2.27677" height="14.799" fill="white"></rect><rect x="286.969" y="10" width="1.13839" height="14.799" fill="white"></rect><rect x="292.661" y="10" width="1.13839" height="14.799" fill="white"></rect><rect x="294.937" y="10" width="1.13839" height="14.799" fill="white"></rect><rect x="304.045" y="10" width="1.13839" height="14.799" fill="white"></rect><rect x="301.768" y="10" width="1.13839" height="14.799" fill="white"></rect><rect x="310.875" y="10" width="1.13839" height="14.799" fill="white"></rect><rect x="321.12" y="10" width="1.13839" height="14.799" fill="white"></rect><path d="M285.807 33.3398V26.2384H289.276C290.169 26.2384 290.839 26.4075 291.285 26.7456C291.738 27.0838 291.965 27.5302 291.965 28.0848C291.965 28.4568 291.873 28.7814 291.691 29.0587C291.508 29.3292 291.258 29.5389 290.94 29.6877C290.622 29.8365 290.257 29.9109 289.844 29.9109L290.037 29.4949C290.484 29.4949 290.879 29.5693 291.224 29.7181C291.569 29.8601 291.836 30.0732 292.026 30.3572C292.222 30.6413 292.32 30.9896 292.32 31.4022C292.32 32.0109 292.08 32.4877 291.6 32.8326C291.119 33.1708 290.413 33.3398 289.479 33.3398H285.807ZM287.44 32.1022H289.357C289.784 32.1022 290.105 32.0345 290.321 31.8993C290.544 31.7572 290.656 31.534 290.656 31.2297C290.656 30.9321 290.544 30.7123 290.321 30.5703C290.105 30.4215 289.784 30.3471 289.357 30.3471H287.318V29.15H289.073C289.472 29.15 289.777 29.0824 289.986 28.9471C290.203 28.8051 290.311 28.592 290.311 28.308C290.311 28.0307 290.203 27.8244 289.986 27.6891C289.777 27.5471 289.472 27.4761 289.073 27.4761H287.44V32.1022ZM296.05 33.421C295.468 33.421 294.951 33.2993 294.497 33.0558C294.051 32.8123 293.696 32.4809 293.432 32.0616C293.175 31.6355 293.047 31.1519 293.047 30.6109C293.047 30.063 293.175 29.5795 293.432 29.1601C293.696 28.734 294.051 28.4026 294.497 28.1659C294.951 27.9225 295.468 27.8007 296.05 27.8007C296.624 27.8007 297.138 27.9225 297.592 28.1659C298.045 28.4026 298.4 28.7307 298.657 29.15C298.914 29.5693 299.042 30.0563 299.042 30.6109C299.042 31.1519 298.914 31.6355 298.657 32.0616C298.4 32.4809 298.045 32.8123 297.592 33.0558C297.138 33.2993 296.624 33.421 296.05 33.421ZM296.05 32.1225C296.313 32.1225 296.55 32.0616 296.76 31.9398C296.969 31.8181 297.135 31.6456 297.257 31.4225C297.379 31.1925 297.439 30.922 297.439 30.6109C297.439 30.293 297.379 30.0225 297.257 29.7993C297.135 29.5761 296.969 29.4036 296.76 29.2819C296.55 29.1601 296.313 29.0993 296.05 29.0993C295.786 29.0993 295.549 29.1601 295.339 29.2819C295.13 29.4036 294.961 29.5761 294.832 29.7993C294.71 30.0225 294.65 30.293 294.65 30.6109C294.65 30.922 294.71 31.1925 294.832 31.4225C294.961 31.6456 295.13 31.8181 295.339 31.9398C295.549 32.0616 295.786 32.1225 296.05 32.1225ZM300.1 33.3398V25.8123H301.683V33.3398H300.1ZM305.86 33.421C305.238 33.421 304.69 33.2993 304.217 33.0558C303.75 32.8123 303.388 32.4809 303.131 32.0616C302.874 31.6355 302.746 31.1519 302.746 30.6109C302.746 30.063 302.871 29.5795 303.121 29.1601C303.378 28.734 303.726 28.4026 304.166 28.1659C304.606 27.9225 305.103 27.8007 305.657 27.8007C306.192 27.8007 306.672 27.9157 307.098 28.1456C307.531 28.3688 307.872 28.6935 308.123 29.1196C308.373 29.5389 308.498 30.0427 308.498 30.6311C308.498 30.692 308.495 30.763 308.488 30.8442C308.481 30.9186 308.474 30.9896 308.468 31.0572H304.034V30.134H307.636L307.027 30.408C307.027 30.1239 306.969 29.877 306.854 29.6674C306.739 29.4577 306.581 29.2954 306.378 29.1804C306.175 29.0587 305.938 28.9978 305.668 28.9978C305.397 28.9978 305.157 29.0587 304.947 29.1804C304.744 29.2954 304.585 29.4611 304.47 29.6775C304.355 29.8872 304.298 30.1374 304.298 30.4282V30.6717C304.298 30.9693 304.362 31.2331 304.491 31.463C304.626 31.6862 304.812 31.8587 305.049 31.9804C305.292 32.0954 305.576 32.1529 305.901 32.1529C306.192 32.1529 306.445 32.1089 306.662 32.021C306.885 31.9331 307.088 31.8012 307.27 31.6254L308.112 32.5384C307.862 32.8225 307.548 33.0423 307.169 33.1978C306.79 33.3466 306.354 33.421 305.86 33.421ZM311.783 33.421C311.141 33.421 310.64 33.2587 310.282 32.934C309.924 32.6026 309.744 32.1123 309.744 31.463V26.6746H311.327V31.4427C311.327 31.6727 311.388 31.8519 311.51 31.9804C311.631 32.1022 311.797 32.163 312.007 32.163C312.257 32.163 312.47 32.0954 312.646 31.9601L313.072 33.0761C312.91 33.1911 312.713 33.279 312.483 33.3398C312.26 33.394 312.027 33.421 311.783 33.421ZM308.902 29.221V28.0036H312.686V29.221H308.902ZM316.389 33.421C315.807 33.421 315.29 33.2993 314.837 33.0558C314.39 32.8123 314.035 32.4809 313.772 32.0616C313.515 31.6355 313.386 31.1519 313.386 30.6109C313.386 30.063 313.515 29.5795 313.772 29.1601C314.035 28.734 314.39 28.4026 314.837 28.1659C315.29 27.9225 315.807 27.8007 316.389 27.8007C316.964 27.8007 317.478 27.9225 317.931 28.1659C318.384 28.4026 318.739 28.7307 318.996 29.15C319.253 29.5693 319.382 30.0563 319.382 30.6109C319.382 31.1519 319.253 31.6355 318.996 32.0616C318.739 32.4809 318.384 32.8123 317.931 33.0558C317.478 33.2993 316.964 33.421 316.389 33.421ZM316.389 32.1225C316.653 32.1225 316.889 32.0616 317.099 31.9398C317.309 31.8181 317.474 31.6456 317.596 31.4225C317.718 31.1925 317.779 30.922 317.779 30.6109C317.779 30.293 317.718 30.0225 317.596 29.7993C317.474 29.5761 317.309 29.4036 317.099 29.2819C316.889 29.1601 316.653 29.0993 316.389 29.0993C316.125 29.0993 315.888 29.1601 315.679 29.2819C315.469 29.4036 315.3 29.5761 315.172 29.7993C315.05 30.0225 314.989 30.293 314.989 30.6109C314.989 30.922 315.05 31.1925 315.172 31.4225C315.3 31.6456 315.469 31.8181 315.679 31.9398C315.888 32.0616 316.125 32.1225 316.389 32.1225Z" fill="white"></path><rect x="313.152" y="10" width="2.27677" height="14.799" fill="white"></rect><rect x="316.567" y="10" width="3.41516" height="14.799" fill="white"></rect><rect x="297.214" y="10" width="3.41516" height="14.799" fill="white"></rect><rect x="306.321" y="10" width="3.41516" height="14.799" fill="white"></rect><rect x="289.245" y="10" width="2.27677" height="14.799" fill="white"></rect><rect x="174.5" y="0.5" width="79" height="47" rx="4.5" stroke="white"></rect><path d="M212.718 15.3356L208.843 33.7115H204.156L208.031 15.3356H212.718ZM232.435 27.2011L234.902 20.3006L236.322 27.2011H232.435ZM237.666 33.7115H242L238.214 15.3356H234.216C233.316 15.3356 232.556 15.8655 232.22 16.6826L225.188 33.7115H230.11L231.087 30.9672H237.099L237.666 33.7115ZM225.432 27.7124C225.452 22.8627 218.822 22.594 218.867 20.4271C218.881 19.7687 219.5 19.0673 220.854 18.888C221.525 18.8003 223.377 18.7292 225.476 19.7104L226.297 15.8121C225.17 15.3984 223.719 15 221.913 15C217.28 15 214.021 17.4964 213.995 21.0739C213.965 23.7195 216.323 25.1946 218.096 26.0757C219.924 26.9763 220.536 27.5537 220.527 28.3584C220.514 29.5913 219.07 30.1373 217.724 30.1579C215.367 30.1951 214 29.5115 212.911 28.9965L212.06 33.025C213.157 33.5342 215.178 33.9773 217.271 34C222.196 34 225.417 31.533 225.432 27.7124ZM206.021 15.3356L198.427 33.7115H193.474L189.737 19.0462C189.51 18.1444 189.312 17.8129 188.623 17.4319C187.496 16.8111 185.636 16.2304 184 15.8692L184.111 15.3356H192.086C193.101 15.3356 194.015 16.0213 194.248 17.2083L196.222 27.8426L201.097 15.3356H206.021Z" fill="white"></path><rect x="87.5" y="0.5" width="79" height="47" rx="4.5" stroke="white"></rect><path fill-rule="evenodd" clip-rule="evenodd" d="M126.501 36.4724C124.084 38.3856 121.183 39.5754 118.127 39.9058C115.071 40.2362 111.985 39.6938 109.22 38.3407C106.456 36.9876 104.126 34.8783 102.495 32.2539C100.865 29.6296 100 26.596 100 23.5C100 20.404 100.865 17.3704 102.495 14.7461C104.126 12.1217 106.456 10.0124 109.22 8.65931C111.985 7.30619 115.071 6.76383 118.127 7.09423C121.183 7.42462 124.084 8.61438 126.5 10.5275C128.917 8.61438 131.818 7.42462 134.874 7.09423C137.93 6.76384 141.016 7.3062 143.78 8.65933C146.544 10.0125 148.875 12.1217 150.505 14.7461C152.136 17.3705 153 20.404 153 23.4999C153 26.5959 152.136 29.6294 150.505 32.2538C148.875 34.8782 146.544 36.9874 143.78 38.3406C141.016 39.6937 137.93 40.2361 134.874 39.9057C131.818 39.5753 128.917 38.3855 126.501 36.4724ZM120.245 23.5C120.243 21.0013 120.805 18.5349 121.888 16.2875C122.972 14.0401 124.549 12.0705 126.5 10.5279C128.45 12.072 130.026 14.0419 131.109 16.2889C132.193 18.5361 132.756 21.0017 132.756 23.4999C132.756 25.9982 132.193 28.4638 131.109 30.7109C130.026 32.958 128.45 34.9279 126.5 36.4721C124.549 34.9295 122.972 32.9599 121.888 30.7125C120.805 28.4651 120.243 25.9986 120.245 23.5ZM129.18 36.2972C130.971 37.3544 132.971 38.0219 135.051 38.2467C137.797 38.5437 140.572 38.0561 143.056 36.8399C145.541 35.6236 147.636 33.7276 149.101 31.3686C150.567 29.0097 151.344 26.2829 151.344 23.5C151.344 20.7171 150.567 17.9902 149.101 15.6313C147.636 13.2723 145.541 11.3763 143.056 10.16C140.572 8.94374 137.797 8.45623 135.051 8.75321C132.971 8.97803 130.971 9.64553 129.18 10.7027C130.574 12.1178 131.73 13.7579 132.599 15.5599C133.792 18.0342 134.412 20.7491 134.412 23.4999C134.412 26.2508 133.792 28.9657 132.599 31.44C131.73 33.242 130.574 34.8821 129.18 36.2972Z" fill="white"></path><path d="M151.438 33.1926V33.7237H151.322V33.1926H151.109V33.0844H151.651V33.1926H151.438Z" fill="white"></path><path d="M152.489 33.0833V33.7237H152.372V33.2396L152.193 33.6571H152.071L151.892 33.2407V33.7237H151.775V33.0833H151.941L152.132 33.5238L152.323 33.0833H152.489Z" fill="white"></path><rect x="0.5" y="0.5" width="79" height="47" rx="4.5" stroke="white"></rect><path d="M49.2821 33.7383C48.5731 33.7399 47.8708 33.6011 47.2157 33.3298C46.5606 33.0586 45.9657 32.6604 45.4653 32.1581L39.9528 26.6456C39.7577 26.4602 39.4988 26.3568 39.2296 26.3568C38.9605 26.3568 38.7016 26.4602 38.5065 26.6456L32.973 32.1791C32.4727 32.6816 31.8779 33.08 31.2228 33.3512C30.5676 33.6225 29.8653 33.7612 29.1562 33.7593H28.0695L35.052 40.7418C37.2307 42.9206 40.7666 42.9206 42.9453 40.7418L49.9462 33.7383H49.2821ZM29.1562 14.2398C30.6 14.2398 31.9545 14.8016 32.973 15.8201L38.5065 21.3536C38.6015 21.4488 38.7145 21.5244 38.8388 21.5759C38.9631 21.6275 39.0964 21.654 39.231 21.654C39.3655 21.654 39.4988 21.6275 39.6231 21.5759C39.7474 21.5244 39.8604 21.4488 39.9555 21.3536L45.468 15.8411C45.9679 15.3389 46.5623 14.9406 47.2169 14.6694C47.8716 14.3982 48.5735 14.2593 49.2821 14.2608H49.9462L42.9453 7.25996C41.8984 6.2137 40.4788 5.62598 38.9986 5.62598C37.5185 5.62598 36.0989 6.2137 35.052 7.25996L28.0695 14.2425L29.1562 14.2398Z" fill="white"></path><path d="M55.7397 20.0516L51.5082 15.8201C51.4132 15.8591 51.3116 15.8796 51.2089 15.8805H49.2848C48.2899 15.8805 47.316 16.2848 46.6152 16.9883L41.1027 22.5008C40.8575 22.7472 40.5661 22.9428 40.2451 23.0762C39.9241 23.2096 39.5799 23.2783 39.2323 23.2783C38.8847 23.2783 38.5406 23.2096 38.2196 23.0762C37.8986 22.9428 37.6072 22.7472 37.362 22.5008L31.8285 16.9646C31.1186 16.2576 30.1582 15.8595 29.1563 15.8569H26.7938C26.6958 15.8561 26.5989 15.8374 26.5077 15.8018L22.2604 20.0516C20.0817 22.2304 20.0817 25.7663 22.2604 27.9476L26.5077 32.1949C26.5979 32.1586 26.6939 32.139 26.7912 32.1371H29.1563C30.1538 32.1371 31.125 31.7355 31.8285 31.032L37.3594 25.4959C37.8641 25.0154 38.5342 24.7474 39.231 24.7474C39.9279 24.7474 40.598 25.0154 41.1027 25.4959L46.6152 31.0084C47.316 31.7119 48.2899 32.1135 49.2848 32.1135H51.2089C51.3139 32.1135 51.4163 32.1398 51.5082 32.1765L55.7397 27.945C57.9184 25.7663 57.9184 22.2304 55.7397 20.0516Z" fill="white"></path></svg>