<svg xmlns="http://www.w3.org/2000/svg" width="324" height="45" viewBox="0 0 324 45" fill="none"><path d="M41.5729 29.3652C39.8685 29.3652 38.2352 29.142 36.6729 28.6957C35.1106 28.229 33.8526 27.6304 32.899 26.9L34.5729 23.187C35.4859 23.8362 36.5613 24.3739 37.799 24.8C39.0569 25.2058 40.325 25.4087 41.6033 25.4087C42.5772 25.4087 43.3584 25.3174 43.9468 25.1348C44.5555 24.9319 45.0019 24.658 45.2859 24.313C45.57 23.9681 45.712 23.5725 45.712 23.1261C45.712 22.558 45.4888 22.1116 45.0424 21.787C44.5961 21.442 44.0077 21.1681 43.2772 20.9652C42.5468 20.742 41.7352 20.5391 40.8424 20.3565C39.97 20.1536 39.0874 19.9101 38.1946 19.6261C37.3222 19.342 36.5207 18.9768 35.7903 18.5304C35.0598 18.0841 34.4613 17.4957 33.9946 16.7652C33.5482 16.0348 33.325 15.1014 33.325 13.9652C33.325 12.7478 33.6497 11.642 34.299 10.6478C34.9685 9.63333 35.9627 8.83188 37.2816 8.24348C38.6207 7.63478 40.2946 7.33043 42.3033 7.33043C43.6424 7.33043 44.9613 7.49275 46.2598 7.81739C47.5584 8.12174 48.7048 8.5884 49.699 9.21739L48.1772 12.9609C47.183 12.3928 46.1888 11.9768 45.1946 11.713C44.2004 11.429 43.2265 11.287 42.2729 11.287C41.3193 11.287 40.5381 11.3985 39.9294 11.6217C39.3207 11.8449 38.8845 12.1391 38.6207 12.5043C38.3569 12.8493 38.225 13.2551 38.225 13.7217C38.225 14.2696 38.4482 14.7159 38.8946 15.0609C39.341 15.3855 39.9294 15.6493 40.6598 15.8522C41.3903 16.0551 42.1917 16.258 43.0642 16.4609C43.9569 16.6638 44.8395 16.8971 45.712 17.1609C46.6048 17.4246 47.4164 17.7797 48.1468 18.2261C48.8772 18.6725 49.4656 19.2609 49.912 19.9913C50.3787 20.7217 50.612 21.6449 50.612 22.7609C50.612 23.958 50.2772 25.0536 49.6077 26.0478C48.9381 27.042 47.9337 27.8435 46.5946 28.4522C45.2758 29.0609 43.6019 29.3652 41.5729 29.3652ZM51.8201 29V12.6261H56.5679V29H51.8201ZM54.194 10.3435C53.3216 10.3435 52.6114 10.0899 52.0636 9.58261C51.5158 9.07536 51.2419 8.44637 51.2419 7.69565C51.2419 6.94493 51.5158 6.31594 52.0636 5.80869C52.6114 5.30145 53.3216 5.04782 54.194 5.04782C55.0665 5.04782 55.7766 5.2913 56.3245 5.77826C56.8723 6.24493 57.1462 6.85362 57.1462 7.60435C57.1462 8.39565 56.8723 9.05507 56.3245 9.58261C55.7969 10.0899 55.0868 10.3435 54.194 10.3435ZM65.8439 29.2435C63.9164 29.2435 62.4149 28.7565 61.3396 27.7826C60.2642 26.7884 59.7265 25.3174 59.7265 23.3696V9.00435H64.4743V23.3087C64.4743 23.9986 64.6569 24.5362 65.0222 24.9217C65.3874 25.287 65.8845 25.4696 66.5135 25.4696C67.2642 25.4696 67.9033 25.2667 68.4309 24.8609L69.7091 28.2087C69.2222 28.5536 68.6338 28.8174 67.9439 29C67.2743 29.1623 66.5743 29.2435 65.8439 29.2435ZM57.2004 16.6435V12.9913H68.5526V16.6435H57.2004ZM78.169 29.2435C76.3024 29.2435 74.6589 28.8783 73.2386 28.1478C71.8386 27.4174 70.7531 26.4232 69.9821 25.1652C69.2111 23.887 68.8256 22.4362 68.8256 20.813C68.8256 19.1696 69.2009 17.7188 69.9516 16.4609C70.7227 15.1826 71.7676 14.1884 73.0864 13.4783C74.4053 12.7478 75.8966 12.3826 77.5603 12.3826C79.1632 12.3826 80.6038 12.7275 81.8821 13.4174C83.1806 14.087 84.2053 15.0609 84.956 16.3391C85.7067 17.5971 86.0821 19.1087 86.0821 20.8739C86.0821 21.0565 86.0719 21.2696 86.0516 21.513C86.0314 21.7362 86.0111 21.9493 85.9908 22.1522H72.6908V19.3826H83.4951L81.669 20.2043C81.669 19.3522 81.4966 18.6116 81.1516 17.9826C80.8067 17.3536 80.3299 16.8667 79.7212 16.5217C79.1125 16.1565 78.4024 15.9739 77.5908 15.9739C76.7792 15.9739 76.0589 16.1565 75.4299 16.5217C74.8212 16.8667 74.3444 17.3638 73.9995 18.013C73.6545 18.642 73.4821 19.3928 73.4821 20.2652V20.9957C73.4821 21.8884 73.6748 22.6797 74.0603 23.3696C74.4661 24.0391 75.0241 24.5565 75.7343 24.9217C76.4647 25.2667 77.3169 25.4391 78.2908 25.4391C79.1632 25.4391 79.9241 25.3072 80.5734 25.0435C81.243 24.7797 81.8516 24.3841 82.3995 23.8565L84.9256 26.5957C84.1748 27.4478 83.2314 28.1072 82.0951 28.5739C80.9589 29.0203 79.6502 29.2435 78.169 29.2435ZM87.7517 29V7.69565H92.6822V24.9826H103.365V29H87.7517ZM111.661 29.2435C109.916 29.2435 108.364 28.8783 107.004 28.1478C105.665 27.4174 104.6 26.4232 103.809 25.1652C103.038 23.887 102.652 22.4362 102.652 20.813C102.652 19.1696 103.038 17.7188 103.809 16.4609C104.6 15.1826 105.665 14.1884 107.004 13.4783C108.364 12.7478 109.916 12.3826 111.661 12.3826C113.385 12.3826 114.928 12.7478 116.287 13.4783C117.646 14.1884 118.712 15.1725 119.483 16.4304C120.254 17.6884 120.639 19.1493 120.639 20.813C120.639 22.4362 120.254 23.887 119.483 25.1652C118.712 26.4232 117.646 27.4174 116.287 28.1478C114.928 28.8783 113.385 29.2435 111.661 29.2435ZM111.661 25.3478C112.452 25.3478 113.162 25.1652 113.791 24.8C114.42 24.4348 114.917 23.9174 115.283 23.2478C115.648 22.558 115.83 21.7464 115.83 20.813C115.83 19.8594 115.648 19.0478 115.283 18.3783C114.917 17.7087 114.42 17.1913 113.791 16.8261C113.162 16.4609 112.452 16.2783 111.661 16.2783C110.87 16.2783 110.159 16.4609 109.53 16.8261C108.901 17.1913 108.394 17.7087 108.009 18.3783C107.643 19.0478 107.461 19.8594 107.461 20.813C107.461 21.7464 107.643 22.558 108.009 23.2478C108.394 23.9174 108.901 24.4348 109.53 24.8C110.159 25.1652 110.87 25.3478 111.661 25.3478ZM129.9 29.2435C128.134 29.2435 126.562 28.8884 125.182 28.1783C123.803 27.4478 122.717 26.4435 121.926 25.1652C121.155 23.887 120.769 22.4362 120.769 20.813C120.769 19.1696 121.155 17.7188 121.926 16.4609C122.717 15.1826 123.803 14.1884 125.182 13.4783C126.562 12.7478 128.134 12.3826 129.9 12.3826C131.624 12.3826 133.126 12.7478 134.404 13.4783C135.682 14.1884 136.626 15.213 137.234 16.5522L133.552 18.5304C133.126 17.7594 132.588 17.1913 131.939 16.8261C131.31 16.4609 130.62 16.2783 129.869 16.2783C129.058 16.2783 128.327 16.4609 127.678 16.8261C127.029 17.1913 126.511 17.7087 126.126 18.3783C125.76 19.0478 125.578 19.8594 125.578 20.813C125.578 21.7667 125.76 22.5783 126.126 23.2478C126.511 23.9174 127.029 24.4348 127.678 24.8C128.327 25.1652 129.058 25.3478 129.869 25.3478C130.62 25.3478 131.31 25.1754 131.939 24.8304C132.588 24.4652 133.126 23.887 133.552 23.0957L137.234 25.1043C136.626 26.4232 135.682 27.4478 134.404 28.1783C133.126 28.8884 131.624 29.2435 129.9 29.2435ZM141.979 25.6522L142.101 19.8696L149.74 12.6261H155.401L148.066 20.0826L145.601 22.0913L141.979 25.6522ZM138.053 29V6.41739H142.801V29H138.053ZM150.257 29L144.718 22.1217L147.701 18.4391L156.009 29H150.257Z" fill="white"></path><path d="M35.9753 40.0519C35.6291 40.0519 35.3089 39.9957 35.0147 39.8832C34.7248 39.7663 34.4717 39.6041 34.2553 39.3964C34.0433 39.1844 33.8767 38.9377 33.7556 38.6565C33.6344 38.3752 33.5738 38.0659 33.5738 37.7284C33.5738 37.3909 33.6344 37.0815 33.7556 36.8003C33.8767 36.519 34.0455 36.2745 34.2618 36.0668C34.4781 35.8548 34.7313 35.6926 35.0212 35.5801C35.3154 35.4632 35.6356 35.4048 35.9817 35.4048C36.3322 35.4048 36.6546 35.4654 36.9488 35.5866C37.2474 35.7034 37.5005 35.8786 37.7082 36.1123L37.2863 36.5212C37.1132 36.3394 36.9185 36.2053 36.7022 36.1188C36.4858 36.0279 36.2543 35.9825 36.0077 35.9825C35.7524 35.9825 35.5144 36.0257 35.2938 36.1123C35.0774 36.1988 34.8892 36.32 34.7291 36.4757C34.569 36.6315 34.4435 36.8176 34.3527 37.0339C34.2661 37.2459 34.2229 37.4774 34.2229 37.7284C34.2229 37.9793 34.2661 38.213 34.3527 38.4293C34.4435 38.6414 34.569 38.8252 34.7291 38.981C34.8892 39.1368 35.0774 39.2579 35.2938 39.3445C35.5144 39.431 35.7524 39.4743 36.0077 39.4743C36.2543 39.4743 36.4858 39.431 36.7022 39.3445C36.9185 39.2536 37.1132 39.1151 37.2863 38.9291L37.7082 39.338C37.5005 39.5716 37.2474 39.749 36.9488 39.8702C36.6546 39.9913 36.3301 40.0519 35.9753 40.0519ZM40.1333 37.4168H42.4699V37.9685H40.1333V37.4168ZM40.1917 39.4353H42.8398V40H39.5427V35.4568H42.7489V36.0214H40.1917V39.4353ZM44.7994 40V35.4568H46.5713C46.9693 35.4568 47.309 35.5195 47.5902 35.645C47.8715 35.7705 48.0878 35.9522 48.2393 36.1902C48.3907 36.4281 48.4664 36.7116 48.4664 37.0404C48.4664 37.3692 48.3907 37.6527 48.2393 37.8906C48.0878 38.1243 47.8715 38.3039 47.5902 38.4293C47.309 38.5548 46.9693 38.6176 46.5713 38.6176H45.1564L45.4484 38.319V40H44.7994ZM47.8369 40L46.6816 38.3515H47.3761L48.5443 40H47.8369ZM45.4484 38.3839L45.1564 38.0659H46.5518C46.9672 38.0659 47.2809 37.9772 47.4929 37.7998C47.7092 37.618 47.8174 37.3649 47.8174 37.0404C47.8174 36.7159 47.7092 36.4649 47.4929 36.2875C47.2809 36.1101 46.9672 36.0214 46.5518 36.0214H45.1564L45.4484 35.6969V38.3839ZM51.2625 40V36.0214H49.7048V35.4568H53.4627V36.0214H51.905V40H51.2625ZM55.0782 40V35.4568H55.7273V40H55.0782ZM58.5802 37.6051H60.9232V38.1632H58.5802V37.6051ZM58.6451 40H57.9961V35.4568H61.2023V36.0214H58.6451V40ZM63.0246 40V35.4568H63.6736V40H63.0246ZM67.9739 40.0519C67.6278 40.0519 67.3076 39.9957 67.0134 39.8832C66.7235 39.7663 66.4703 39.6041 66.254 39.3964C66.042 39.1844 65.8754 38.9377 65.7542 38.6565C65.6331 38.3752 65.5725 38.0659 65.5725 37.7284C65.5725 37.3909 65.6331 37.0815 65.7542 36.8003C65.8754 36.519 66.0441 36.2745 66.2605 36.0668C66.4768 35.8548 66.73 35.6926 67.0199 35.5801C67.3141 35.4632 67.6343 35.4048 67.9804 35.4048C68.3309 35.4048 68.6533 35.4654 68.9475 35.5866C69.2461 35.7034 69.4992 35.8786 69.7069 36.1123L69.285 36.5212C69.1119 36.3394 68.9172 36.2053 68.7009 36.1188C68.4845 36.0279 68.253 35.9825 68.0064 35.9825C67.7511 35.9825 67.5131 36.0257 67.2925 36.1123C67.0761 36.1988 66.8879 36.32 66.7278 36.4757C66.5677 36.6315 66.4422 36.8176 66.3514 37.0339C66.2648 37.2459 66.2216 37.4774 66.2216 37.7284C66.2216 37.9793 66.2648 38.213 66.3514 38.4293C66.4422 38.6414 66.5677 38.8252 66.7278 38.981C66.8879 39.1368 67.0761 39.2579 67.2925 39.3445C67.5131 39.431 67.7511 39.4743 68.0064 39.4743C68.253 39.4743 68.4845 39.431 68.7009 39.3445C68.9172 39.2536 69.1119 39.1151 69.285 38.9291L69.7069 39.338C69.4992 39.5716 69.2461 39.749 68.9475 39.8702C68.6533 39.9913 68.3288 40.0519 67.9739 40.0519ZM70.7457 40L72.8031 35.4568H73.4457L75.5096 40H74.8281L72.9913 35.8202H73.251L71.4142 40H70.7457ZM71.6219 38.8642L71.7971 38.345H74.3543L74.5425 38.8642H71.6219ZM77.096 40V35.4568H79.0106C79.4952 35.4568 79.9214 35.5519 80.2892 35.7423C80.6613 35.9327 80.9491 36.1988 81.1524 36.5406C81.3601 36.8825 81.464 37.2784 81.464 37.7284C81.464 38.1784 81.3601 38.5743 81.1524 38.9161C80.9491 39.2579 80.6613 39.524 80.2892 39.7144C79.9214 39.9048 79.4952 40 79.0106 40H77.096ZM77.745 39.4353H78.9717C79.3481 39.4353 79.6726 39.3639 79.9452 39.2212C80.2222 39.0784 80.4363 38.8793 80.5878 38.624C80.7392 38.3644 80.8149 38.0659 80.8149 37.7284C80.8149 37.3866 80.7392 37.088 80.5878 36.8327C80.4363 36.5774 80.2222 36.3784 79.9452 36.2356C79.6726 36.0928 79.3481 36.0214 78.9717 36.0214H77.745V39.4353ZM85.4177 40.0519C85.0716 40.0519 84.7492 39.9935 84.4507 39.8767C84.1564 39.7599 83.9011 39.5976 83.6848 39.3899C83.4685 39.1779 83.2997 38.9313 83.1786 38.65C83.0574 38.3688 82.9968 38.0615 82.9968 37.7284C82.9968 37.3952 83.0574 37.088 83.1786 36.8067C83.2997 36.5255 83.4685 36.281 83.6848 36.0733C83.9011 35.8613 84.1564 35.6969 84.4507 35.5801C84.7449 35.4632 85.0672 35.4048 85.4177 35.4048C85.7639 35.4048 86.0819 35.4632 86.3718 35.5801C86.666 35.6926 86.9213 35.8548 87.1377 36.0668C87.3583 36.2745 87.5271 36.519 87.6439 36.8003C87.7651 37.0815 87.8256 37.3909 87.8256 37.7284C87.8256 38.0659 87.7651 38.3752 87.6439 38.6565C87.5271 38.9377 87.3583 39.1844 87.1377 39.3964C86.9213 39.6041 86.666 39.7663 86.3718 39.8832C86.0819 39.9957 85.7639 40.0519 85.4177 40.0519ZM85.4177 39.4743C85.6687 39.4743 85.9002 39.431 86.1122 39.3445C86.3285 39.2579 86.5146 39.1368 86.6704 38.981C86.8305 38.8209 86.9538 38.6349 87.0403 38.4228C87.1312 38.2108 87.1766 37.9793 87.1766 37.7284C87.1766 37.4774 87.1312 37.2459 87.0403 37.0339C86.9538 36.8219 86.8305 36.638 86.6704 36.4822C86.5146 36.3221 86.3285 36.1988 86.1122 36.1123C85.9002 36.0257 85.6687 35.9825 85.4177 35.9825C85.1624 35.9825 84.9266 36.0257 84.7103 36.1123C84.4983 36.1988 84.3122 36.3221 84.1521 36.4822C83.992 36.638 83.8665 36.8219 83.7757 37.0339C83.6891 37.2459 83.6459 37.4774 83.6459 37.7284C83.6459 37.9793 83.6891 38.2108 83.7757 38.4228C83.8665 38.6349 83.992 38.8209 84.1521 38.981C84.3122 39.1368 84.4983 39.2579 84.7103 39.3445C84.9266 39.431 85.1624 39.4743 85.4177 39.4743ZM92.378 40V35.4568H94.2926C94.7772 35.4568 95.2034 35.5519 95.5712 35.7423C95.9433 35.9327 96.2311 36.1988 96.4344 36.5406C96.6421 36.8825 96.746 37.2784 96.746 37.7284C96.746 38.1784 96.6421 38.5743 96.4344 38.9161C96.2311 39.2579 95.9433 39.524 95.5712 39.7144C95.2034 39.9048 94.7772 40 94.2926 40H92.378ZM93.027 39.4353H94.2537C94.6301 39.4353 94.9546 39.3639 95.2272 39.2212C95.5041 39.0784 95.7183 38.8793 95.8698 38.624C96.0212 38.3644 96.0969 38.0659 96.0969 37.7284C96.0969 37.3866 96.0212 37.088 95.8698 36.8327C95.7183 36.5774 95.5041 36.3784 95.2272 36.2356C94.9546 36.0928 94.6301 36.0214 94.2537 36.0214H93.027V39.4353ZM99.2394 37.4168H101.576V37.9685H99.2394V37.4168ZM99.2978 39.4353H101.946V40H98.6488V35.4568H101.855V36.0214H99.2978V39.4353ZM107.881 40.0519C107.535 40.0519 107.204 40 106.888 39.8962C106.572 39.788 106.323 39.6495 106.142 39.4808L106.382 38.9745C106.555 39.126 106.776 39.2514 107.044 39.351C107.312 39.4505 107.591 39.5002 107.881 39.5002C108.145 39.5002 108.359 39.47 108.524 39.4094C108.688 39.3488 108.809 39.2666 108.887 39.1627C108.965 39.0546 109.004 38.9334 109.004 38.7993C109.004 38.6435 108.952 38.518 108.848 38.4228C108.749 38.3277 108.617 38.2519 108.452 38.1957C108.292 38.1351 108.115 38.0832 107.92 38.0399C107.725 37.9966 107.528 37.9469 107.329 37.8906C107.135 37.8301 106.955 37.7543 106.791 37.6635C106.631 37.5726 106.501 37.4515 106.401 37.3C106.302 37.1442 106.252 36.9452 106.252 36.7029C106.252 36.4692 106.313 36.2551 106.434 36.0604C106.559 35.8613 106.75 35.7034 107.005 35.5866C107.265 35.4654 107.593 35.4048 107.991 35.4048C108.255 35.4048 108.517 35.4394 108.777 35.5087C109.036 35.5779 109.261 35.6774 109.452 35.8072L109.238 36.3265C109.043 36.1967 108.837 36.1036 108.621 36.0474C108.405 35.9868 108.195 35.9565 107.991 35.9565C107.736 35.9565 107.526 35.989 107.362 36.0539C107.197 36.1188 107.076 36.2053 106.998 36.3135C106.925 36.4217 106.888 36.5428 106.888 36.6769C106.888 36.837 106.938 36.9647 107.037 37.0599C107.141 37.1551 107.273 37.2308 107.433 37.287C107.598 37.3433 107.777 37.3952 107.972 37.4428C108.167 37.4861 108.361 37.5358 108.556 37.5921C108.755 37.6483 108.935 37.7219 109.095 37.8128C109.259 37.9036 109.391 38.0248 109.491 38.1762C109.59 38.3277 109.64 38.5224 109.64 38.7603C109.64 38.9897 109.577 39.2039 109.452 39.4029C109.326 39.5976 109.132 39.7555 108.868 39.8767C108.608 39.9935 108.279 40.0519 107.881 40.0519ZM112.087 37.4168H114.424V37.9685H112.087V37.4168ZM112.146 39.4353H114.794V40H111.497V35.4568H114.703V36.0214H112.146V39.4353ZM118.798 40.0519C118.448 40.0519 118.125 39.9957 117.831 39.8832C117.537 39.7663 117.282 39.6041 117.065 39.3964C116.849 39.1844 116.68 38.9377 116.559 38.6565C116.438 38.3752 116.377 38.0659 116.377 37.7284C116.377 37.3909 116.438 37.0815 116.559 36.8003C116.68 36.519 116.849 36.2745 117.065 36.0668C117.286 35.8548 117.543 35.6926 117.838 35.5801C118.132 35.4632 118.456 35.4048 118.811 35.4048C119.17 35.4048 119.499 35.4632 119.798 35.5801C120.096 35.6969 120.349 35.8721 120.557 36.1058L120.155 36.5082C119.969 36.3265 119.765 36.1945 119.545 36.1123C119.328 36.0257 119.092 35.9825 118.837 35.9825C118.577 35.9825 118.335 36.0257 118.11 36.1123C117.889 36.1988 117.697 36.32 117.533 36.4757C117.372 36.6315 117.247 36.8176 117.156 37.0339C117.07 37.2459 117.026 37.4774 117.026 37.7284C117.026 37.975 117.07 38.2065 117.156 38.4228C117.247 38.6349 117.372 38.8209 117.533 38.981C117.697 39.1368 117.889 39.2579 118.11 39.3445C118.331 39.431 118.571 39.4743 118.831 39.4743C119.073 39.4743 119.304 39.4375 119.525 39.3639C119.75 39.2861 119.958 39.1584 120.148 38.981L120.518 39.4743C120.293 39.6647 120.029 39.8096 119.726 39.9091C119.428 40.0043 119.118 40.0519 118.798 40.0519ZM119.895 39.3899V37.7024H120.518V39.4743L119.895 39.3899ZM124.552 40.0519C123.954 40.0519 123.485 39.881 123.143 39.5392C122.801 39.1974 122.63 38.6976 122.63 38.0399V35.4568H123.279V38.014C123.279 38.5202 123.39 38.8902 123.61 39.1238C123.835 39.3575 124.151 39.4743 124.558 39.4743C124.969 39.4743 125.285 39.3575 125.506 39.1238C125.731 38.8902 125.843 38.5202 125.843 38.014V35.4568H126.473V38.0399C126.473 38.6976 126.302 39.1974 125.96 39.5392C125.622 39.881 125.153 40.0519 124.552 40.0519ZM128.712 40V35.4568H130.484C130.882 35.4568 131.222 35.5195 131.503 35.645C131.784 35.7705 132 35.9522 132.152 36.1902C132.303 36.4281 132.379 36.7116 132.379 37.0404C132.379 37.3692 132.303 37.6527 132.152 37.8906C132 38.1243 131.784 38.3039 131.503 38.4293C131.222 38.5548 130.882 38.6176 130.484 38.6176H129.069L129.361 38.319V40H128.712ZM131.749 40L130.594 38.3515H131.289L132.457 40H131.749ZM129.361 38.3839L129.069 38.0659H130.464C130.88 38.0659 131.193 37.9772 131.405 37.7998C131.622 37.618 131.73 37.3649 131.73 37.0404C131.73 36.7159 131.622 36.4649 131.405 36.2875C131.193 36.1101 130.88 36.0214 130.464 36.0214H129.069L129.361 35.6969V38.3839ZM133.648 40L135.706 35.4568H136.348L138.412 40H137.731L135.894 35.8202H136.154L134.317 40H133.648ZM134.525 38.8642L134.7 38.345H137.257L137.445 38.8642H134.525ZM139.999 40V35.4568H140.531L143.536 39.1887H143.257V35.4568H143.906V40H143.374L140.369 36.268H140.648V40H139.999ZM148.206 40.0519C147.86 40.0519 147.539 39.9957 147.245 39.8832C146.955 39.7663 146.702 39.6041 146.486 39.3964C146.274 39.1844 146.107 38.9377 145.986 38.6565C145.865 38.3752 145.804 38.0659 145.804 37.7284C145.804 37.3909 145.865 37.0815 145.986 36.8003C146.107 36.519 146.276 36.2745 146.492 36.0668C146.709 35.8548 146.962 35.6926 147.252 35.5801C147.546 35.4632 147.866 35.4048 148.212 35.4048C148.563 35.4048 148.885 35.4654 149.179 35.5866C149.478 35.7034 149.731 35.8786 149.939 36.1123L149.517 36.5212C149.344 36.3394 149.149 36.2053 148.933 36.1188C148.716 36.0279 148.485 35.9825 148.238 35.9825C147.983 35.9825 147.745 36.0257 147.524 36.1123C147.308 36.1988 147.12 36.32 146.96 36.4757C146.8 36.6315 146.674 36.8176 146.583 37.0339C146.497 37.2459 146.453 37.4774 146.453 37.7284C146.453 37.9793 146.497 38.213 146.583 38.4293C146.674 38.6414 146.8 38.8252 146.96 38.981C147.12 39.1368 147.308 39.2579 147.524 39.3445C147.745 39.431 147.983 39.4743 148.238 39.4743C148.485 39.4743 148.716 39.431 148.933 39.3445C149.149 39.2536 149.344 39.1151 149.517 38.9291L149.939 39.338C149.731 39.5716 149.478 39.749 149.179 39.8702C148.885 39.9913 148.561 40.0519 148.206 40.0519ZM147.94 41.4538C147.827 41.4538 147.723 41.4409 147.628 41.4149C147.533 41.3933 147.444 41.3586 147.362 41.3111L147.498 40.993C147.568 41.032 147.637 41.0601 147.706 41.0774C147.78 41.0947 147.857 41.1034 147.94 41.1034C148.065 41.1034 148.156 41.0796 148.212 41.032C148.273 40.9887 148.303 40.926 148.303 40.8437C148.303 40.7659 148.273 40.7031 148.212 40.6555C148.156 40.6123 148.063 40.5906 147.933 40.5906H147.758L147.92 39.9546H148.277L148.18 40.3245C148.366 40.3418 148.507 40.4002 148.602 40.4998C148.697 40.5993 148.745 40.7204 148.745 40.8632C148.745 41.0449 148.671 41.1877 148.524 41.2916C148.377 41.3998 148.182 41.4538 147.94 41.4538ZM150.978 40L153.035 35.4568H153.678L155.741 40H155.06L153.223 35.8202H153.483L151.646 40H150.978ZM151.854 38.8642L152.029 38.345H154.586L154.774 38.8642H151.854Z" fill="white"></path><path d="M23.7819 21.6696H27.1869C27.6439 21.6696 28 22.0713 28 22.5228V40.1966C28 40.6481 27.6439 41 27.1869 41H0.813055C0.356118 41 0 40.6481 0 40.1966V22.5228C0 22.0713 0.356118 21.6696 0.813055 21.6696H4.11569V13.4352C4.11569 8.81594 7.11423 5 11.7389 5H16.1099C20.7849 5 23.7835 8.81594 23.7835 13.4352V21.6696H23.7819ZM8.43626 21.6696H19.515V13.8369C19.515 11.2758 17.3799 9.1164 14.7374 9.1164H13.1617C10.5697 9.1164 8.43626 11.2758 8.43626 13.8369V21.6696ZM11.6364 35.8794H16.3619L15.1928 30.8086C16.0058 30.4069 16.5652 29.5538 16.5652 28.5994C16.5652 27.1437 15.396 26.0383 13.9732 26.0383C12.5503 26.0383 11.4316 27.1437 11.4316 28.5994C11.4316 29.5538 11.9909 30.4069 12.804 30.8086L11.6364 35.8794Z" fill="white"></path><path d="M232.863 34.3652C231.179 34.3652 229.627 34.1014 228.206 33.5739C226.806 33.0261 225.579 32.2551 224.524 31.2609C223.489 30.2667 222.677 29.1 222.089 27.7609C221.521 26.4217 221.237 24.9507 221.237 23.3478C221.237 21.7449 221.521 20.2739 222.089 18.9348C222.677 17.5957 223.499 16.429 224.554 15.4348C225.609 14.4406 226.847 13.6797 228.267 13.1522C229.688 12.6043 231.25 12.3304 232.954 12.3304C234.841 12.3304 236.535 12.6449 238.037 13.2739C239.559 13.9029 240.837 14.8159 241.872 16.013L238.706 18.9348C237.935 18.1232 237.093 17.5246 236.18 17.1391C235.267 16.7333 234.273 16.5304 233.198 16.5304C232.163 16.5304 231.219 16.6928 230.367 17.0174C229.515 17.342 228.774 17.8087 228.145 18.4174C227.537 19.0261 227.06 19.7464 226.715 20.5783C226.39 21.4101 226.228 22.3333 226.228 23.3478C226.228 24.342 226.39 25.2551 226.715 26.087C227.06 26.9188 227.537 27.6493 228.145 28.2783C228.774 28.887 229.505 29.3536 230.337 29.6783C231.189 30.0029 232.122 30.1652 233.137 30.1652C234.111 30.1652 235.054 30.013 235.967 29.7087C236.901 29.3841 237.803 28.8464 238.676 28.0957L241.476 31.6565C240.319 32.529 238.97 33.1986 237.428 33.6652C235.906 34.1319 234.385 34.3652 232.863 34.3652ZM236.972 31.0174V23.013H241.476V31.6565L236.972 31.0174ZM251.686 34.2435C249.941 34.2435 248.389 33.8783 247.03 33.1478C245.691 32.4174 244.625 31.4232 243.834 30.1652C243.063 28.887 242.678 27.4362 242.678 25.813C242.678 24.1696 243.063 22.7188 243.834 21.4609C244.625 20.1826 245.691 19.1884 247.03 18.4783C248.389 17.7478 249.941 17.3826 251.686 17.3826C253.411 17.3826 254.953 17.7478 256.312 18.4783C257.672 19.1884 258.737 20.1725 259.508 21.4304C260.279 22.6884 260.665 24.1493 260.665 25.813C260.665 27.4362 260.279 28.887 259.508 30.1652C258.737 31.4232 257.672 32.4174 256.312 33.1478C254.953 33.8783 253.411 34.2435 251.686 34.2435ZM251.686 30.3478C252.478 30.3478 253.188 30.1652 253.817 29.8C254.446 29.4348 254.943 28.9174 255.308 28.2478C255.673 27.558 255.856 26.7464 255.856 25.813C255.856 24.8594 255.673 24.0478 255.308 23.3783C254.943 22.7087 254.446 22.1913 253.817 21.8261C253.188 21.4609 252.478 21.2783 251.686 21.2783C250.895 21.2783 250.185 21.4609 249.556 21.8261C248.927 22.1913 248.42 22.7087 248.034 23.3783C247.669 24.0478 247.486 24.8594 247.486 25.813C247.486 26.7464 247.669 27.558 248.034 28.2478C248.42 28.9174 248.927 29.4348 249.556 29.8C250.185 30.1652 250.895 30.3478 251.686 30.3478ZM269.803 34.2435C268.058 34.2435 266.506 33.8783 265.147 33.1478C263.808 32.4174 262.742 31.4232 261.951 30.1652C261.18 28.887 260.795 27.4362 260.795 25.813C260.795 24.1696 261.18 22.7188 261.951 21.4609C262.742 20.1826 263.808 19.1884 265.147 18.4783C266.506 17.7478 268.058 17.3826 269.803 17.3826C271.528 17.3826 273.07 17.7478 274.429 18.4783C275.789 19.1884 276.854 20.1725 277.625 21.4304C278.396 22.6884 278.782 24.1493 278.782 25.813C278.782 27.4362 278.396 28.887 277.625 30.1652C276.854 31.4232 275.789 32.4174 274.429 33.1478C273.07 33.8783 271.528 34.2435 269.803 34.2435ZM269.803 30.3478C270.595 30.3478 271.305 30.1652 271.934 29.8C272.563 29.4348 273.06 28.9174 273.425 28.2478C273.79 27.558 273.973 26.7464 273.973 25.813C273.973 24.8594 273.79 24.0478 273.425 23.3783C273.06 22.7087 272.563 22.1913 271.934 21.8261C271.305 21.4609 270.595 21.2783 269.803 21.2783C269.012 21.2783 268.302 21.4609 267.673 21.8261C267.044 22.1913 266.537 22.7087 266.151 23.3783C265.786 24.0478 265.603 24.8594 265.603 25.813C265.603 26.7464 265.786 27.558 266.151 28.2478C266.537 28.9174 267.044 29.4348 267.673 29.8C268.302 30.1652 269.012 30.3478 269.803 30.3478ZM287.829 40.1478C286.287 40.1478 284.796 39.9551 283.355 39.5696C281.935 39.2043 280.748 38.6464 279.794 37.8957L281.681 34.487C282.371 35.0551 283.244 35.5014 284.299 35.8261C285.374 36.171 286.429 36.3435 287.464 36.3435C289.148 36.3435 290.365 35.9681 291.116 35.2174C291.887 34.4667 292.273 33.3507 292.273 31.8696V29.4043L292.577 25.2957L292.516 21.1565V17.6261H297.02V31.2609C297.02 34.3043 296.229 36.5464 294.646 37.987C293.064 39.4275 290.791 40.1478 287.829 40.1478ZM287.099 33.2087C285.577 33.2087 284.197 32.8841 282.959 32.2348C281.742 31.5652 280.758 30.642 280.007 29.4652C279.277 28.2681 278.912 26.8783 278.912 25.2957C278.912 23.6928 279.277 22.3029 280.007 21.1261C280.758 19.929 281.742 19.0058 282.959 18.3565C284.197 17.7072 285.577 17.3826 287.099 17.3826C288.478 17.3826 289.696 17.6667 290.751 18.2348C291.806 18.7826 292.628 19.6449 293.216 20.8217C293.804 21.9783 294.099 23.4696 294.099 25.2957C294.099 27.1014 293.804 28.5928 293.216 29.7696C292.628 30.9261 291.806 31.7884 290.751 32.3565C289.696 32.9246 288.478 33.2087 287.099 33.2087ZM288.042 29.313C288.874 29.313 289.615 29.1507 290.264 28.8261C290.913 28.4812 291.42 28.0043 291.786 27.3957C292.151 26.787 292.333 26.087 292.333 25.2957C292.333 24.4841 292.151 23.7841 291.786 23.1957C291.42 22.587 290.913 22.1203 290.264 21.7957C289.615 21.4507 288.874 21.2783 288.042 21.2783C287.21 21.2783 286.47 21.4507 285.82 21.7957C285.171 22.1203 284.654 22.587 284.268 23.1957C283.903 23.7841 283.72 24.4841 283.72 25.2957C283.72 26.087 283.903 26.787 284.268 27.3957C284.654 28.0043 285.171 28.4812 285.82 28.8261C286.47 29.1507 287.21 29.313 288.042 29.313ZM299.613 34V11.4174H304.361V34H299.613ZM315.067 34.2435C313.201 34.2435 311.557 33.8783 310.137 33.1478C308.737 32.4174 307.652 31.4232 306.881 30.1652C306.11 28.887 305.724 27.4362 305.724 25.813C305.724 24.1696 306.099 22.7188 306.85 21.4609C307.621 20.1826 308.666 19.1884 309.985 18.4783C311.304 17.7478 312.795 17.3826 314.459 17.3826C316.062 17.3826 317.502 17.7275 318.781 18.4174C320.079 19.087 321.104 20.0609 321.854 21.3391C322.605 22.5971 322.981 24.1087 322.981 25.8739C322.981 26.0565 322.97 26.2696 322.95 26.513C322.93 26.7362 322.91 26.9493 322.889 27.1522H309.589V24.3826H320.394L318.567 25.2043C318.567 24.3522 318.395 23.6116 318.05 22.9826C317.705 22.3536 317.228 21.8667 316.62 21.5217C316.011 21.1565 315.301 20.9739 314.489 20.9739C313.678 20.9739 312.957 21.1565 312.328 21.5217C311.72 21.8667 311.243 22.3638 310.898 23.013C310.553 23.642 310.381 24.3928 310.381 25.2652V25.9957C310.381 26.8884 310.573 27.6797 310.959 28.3696C311.365 29.0391 311.923 29.5565 312.633 29.9217C313.363 30.2667 314.215 30.4391 315.189 30.4391C316.062 30.4391 316.823 30.3072 317.472 30.0435C318.141 29.7797 318.75 29.3841 319.298 28.8565L321.824 31.5957C321.073 32.4478 320.13 33.1072 318.994 33.5739C317.857 34.0203 316.549 34.2435 315.067 34.2435Z" fill="white"></path><path d="M246.166 14.0779C245.647 14.0779 245.151 14 244.677 13.8442C244.203 13.682 243.83 13.4743 243.557 13.2212L243.917 12.4618C244.177 12.6889 244.508 12.8772 244.91 13.0264C245.313 13.1757 245.731 13.2504 246.166 13.2504C246.562 13.2504 246.883 13.2049 247.13 13.1141C247.377 13.0232 247.558 12.8999 247.675 12.7441C247.792 12.5819 247.851 12.4001 247.851 12.1989C247.851 11.9653 247.773 11.7771 247.617 11.6343C247.468 11.4915 247.27 11.3779 247.023 11.2935C246.783 11.2027 246.517 11.1248 246.225 11.0599C245.933 10.995 245.637 10.9203 245.339 10.836C245.047 10.7451 244.777 10.6315 244.531 10.4952C244.291 10.3589 244.096 10.1772 243.947 9.95002C243.797 9.71637 243.723 9.41781 243.723 9.05435C243.723 8.70387 243.814 8.3826 243.995 8.09054C244.183 7.79198 244.469 7.55508 244.852 7.37984C245.241 7.19811 245.735 7.10725 246.332 7.10725C246.728 7.10725 247.12 7.15917 247.51 7.26302C247.899 7.36686 248.237 7.51614 248.522 7.71085L248.201 8.48969C247.909 8.29498 247.601 8.15544 247.276 8.07107C246.952 7.9802 246.637 7.93477 246.332 7.93477C245.949 7.93477 245.634 7.98345 245.387 8.0808C245.141 8.17816 244.959 8.30796 244.842 8.47022C244.732 8.63248 244.677 8.81421 244.677 9.01541C244.677 9.25555 244.751 9.44702 244.901 9.58981C245.056 9.7326 245.254 9.84618 245.495 9.93055C245.741 10.0149 246.011 10.0928 246.303 10.1642C246.595 10.2291 246.887 10.3037 247.179 10.3881C247.477 10.4725 247.747 10.5828 247.987 10.7191C248.233 10.8554 248.431 11.0372 248.581 11.2643C248.73 11.4915 248.805 11.7835 248.805 12.1405C248.805 12.4845 248.71 12.8058 248.522 13.1043C248.334 13.3964 248.042 13.6333 247.646 13.815C247.257 13.9903 246.763 14.0779 246.166 14.0779ZM249.701 14V8.84017H250.636V14H249.701ZM250.168 7.84715C249.987 7.84715 249.834 7.78874 249.711 7.67191C249.594 7.55508 249.536 7.4123 249.536 7.24355C249.536 7.06831 249.594 6.92227 249.711 6.80545C249.834 6.68862 249.987 6.63021 250.168 6.63021C250.35 6.63021 250.499 6.68862 250.616 6.80545C250.74 6.91578 250.801 7.05533 250.801 7.22407C250.801 7.39931 250.743 7.54859 250.626 7.67191C250.509 7.78874 250.357 7.84715 250.168 7.84715ZM253.803 14.0584C253.283 14.0584 252.881 13.9189 252.596 13.6398C252.31 13.3607 252.167 12.9615 252.167 12.4423V7.71085H253.102V12.4034C253.102 12.6825 253.17 12.8966 253.306 13.0459C253.449 13.1952 253.65 13.2698 253.91 13.2698C254.202 13.2698 254.445 13.1887 254.64 13.0264L254.932 13.6982C254.789 13.8215 254.617 13.9124 254.416 13.9708C254.221 14.0292 254.017 14.0584 253.803 14.0584ZM251.291 9.60928V8.84017H254.582V9.60928H251.291ZM257.799 14.0584C257.247 14.0584 256.761 13.9448 256.339 13.7177C255.923 13.4905 255.599 13.179 255.365 12.7831C255.138 12.3871 255.024 11.9328 255.024 11.4201C255.024 10.9073 255.135 10.453 255.355 10.0571C255.583 9.6612 255.891 9.35291 256.28 9.13224C256.676 8.90508 257.121 8.79149 257.614 8.79149C258.114 8.79149 258.555 8.90183 258.938 9.1225C259.321 9.34317 259.62 9.65471 259.834 10.0571C260.054 10.453 260.165 10.9171 260.165 11.4493C260.165 11.4882 260.161 11.5337 260.155 11.5856C260.155 11.6375 260.152 11.6862 260.145 11.7316H255.755V11.0599H259.658L259.279 11.2935C259.285 10.9625 259.217 10.6672 259.074 10.4076C258.932 10.148 258.734 9.94678 258.48 9.80399C258.234 9.65471 257.945 9.58007 257.614 9.58007C257.29 9.58007 257.001 9.65471 256.748 9.80399C256.494 9.94678 256.296 10.1512 256.154 10.4173C256.011 10.6769 255.94 10.9755 255.94 11.313V11.4688C255.94 11.8128 256.017 12.121 256.173 12.3936C256.335 12.6597 256.559 12.8674 256.845 13.0167C257.13 13.166 257.458 13.2406 257.828 13.2406C258.133 13.2406 258.409 13.1887 258.656 13.0849C258.909 12.981 259.13 12.8252 259.318 12.6176L259.834 13.2212C259.6 13.4938 259.308 13.7014 258.958 13.8442C258.614 13.987 258.227 14.0584 257.799 14.0584ZM265.421 14.0779C264.901 14.0779 264.405 14 263.931 13.8442C263.457 13.682 263.084 13.4743 262.811 13.2212L263.172 12.4618C263.431 12.6889 263.762 12.8772 264.165 13.0264C264.567 13.1757 264.986 13.2504 265.421 13.2504C265.816 13.2504 266.138 13.2049 266.384 13.1141C266.631 13.0232 266.813 12.8999 266.93 12.7441C267.046 12.5819 267.105 12.4001 267.105 12.1989C267.105 11.9653 267.027 11.7771 266.871 11.6343C266.722 11.4915 266.524 11.3779 266.277 11.2935C266.037 11.2027 265.771 11.1248 265.479 11.0599C265.187 10.995 264.892 10.9203 264.593 10.836C264.301 10.7451 264.032 10.6315 263.785 10.4952C263.545 10.3589 263.35 10.1772 263.201 9.95002C263.052 9.71637 262.977 9.41781 262.977 9.05435C262.977 8.70387 263.068 8.3826 263.25 8.09054C263.438 7.79198 263.723 7.55508 264.106 7.37984C264.496 7.19811 264.989 7.10725 265.586 7.10725C265.982 7.10725 266.375 7.15917 266.764 7.26302C267.153 7.36686 267.491 7.51614 267.777 7.71085L267.455 8.48969C267.163 8.29498 266.855 8.15544 266.53 8.07107C266.206 7.9802 265.891 7.93477 265.586 7.93477C265.203 7.93477 264.888 7.98345 264.642 8.0808C264.395 8.17816 264.213 8.30796 264.097 8.47022C263.986 8.63248 263.931 8.81421 263.931 9.01541C263.931 9.25555 264.006 9.44702 264.155 9.58981C264.311 9.7326 264.509 9.84618 264.749 9.93055C264.995 10.0149 265.265 10.0928 265.557 10.1642C265.849 10.2291 266.141 10.3037 266.433 10.3881C266.732 10.4725 267.001 10.5828 267.241 10.7191C267.488 10.8554 267.686 11.0372 267.835 11.2643C267.984 11.4915 268.059 11.7835 268.059 12.1405C268.059 12.4845 267.965 12.8058 267.777 13.1043C267.588 13.3964 267.296 13.6333 266.9 13.815C266.511 13.9903 266.018 14.0779 265.421 14.0779ZM271.253 14.0584C270.701 14.0584 270.215 13.9448 269.793 13.7177C269.377 13.4905 269.053 13.179 268.819 12.7831C268.592 12.3871 268.478 11.9328 268.478 11.4201C268.478 10.9073 268.589 10.453 268.809 10.0571C269.037 9.6612 269.345 9.35291 269.734 9.13224C270.13 8.90508 270.575 8.79149 271.068 8.79149C271.568 8.79149 272.009 8.90183 272.392 9.1225C272.775 9.34317 273.074 9.65471 273.288 10.0571C273.508 10.453 273.619 10.9171 273.619 11.4493C273.619 11.4882 273.616 11.5337 273.609 11.5856C273.609 11.6375 273.606 11.6862 273.599 11.7316H269.209V11.0599H273.113L272.733 11.2935C272.739 10.9625 272.671 10.6672 272.528 10.4076C272.386 10.148 272.188 9.94678 271.935 9.80399C271.688 9.65471 271.399 9.58007 271.068 9.58007C270.744 9.58007 270.455 9.65471 270.202 9.80399C269.948 9.94678 269.751 10.1512 269.608 10.4173C269.465 10.6769 269.394 10.9755 269.394 11.313V11.4688C269.394 11.8128 269.471 12.121 269.627 12.3936C269.789 12.6597 270.013 12.8674 270.299 13.0167C270.585 13.166 270.912 13.2406 271.282 13.2406C271.587 13.2406 271.863 13.1887 272.11 13.0849C272.363 12.981 272.584 12.8252 272.772 12.6176L273.288 13.2212C273.054 13.4938 272.762 13.7014 272.412 13.8442C272.068 13.987 271.681 14.0584 271.253 14.0584ZM276.786 15.9471C276.312 15.9471 275.851 15.879 275.403 15.7427C274.962 15.6129 274.602 15.4246 274.323 15.178L274.771 14.4576C275.011 14.6653 275.306 14.8275 275.656 14.9443C276.007 15.0677 276.374 15.1293 276.757 15.1293C277.367 15.1293 277.815 14.9865 278.1 14.701C278.386 14.4154 278.528 13.9805 278.528 13.3964V12.306L278.626 11.2838L278.577 10.2518V8.84017H279.463V13.299C279.463 14.2077 279.236 14.8762 278.782 15.3046C278.327 15.7329 277.662 15.9471 276.786 15.9471ZM276.669 13.7858C276.169 13.7858 275.721 13.682 275.325 13.4743C274.936 13.2601 274.624 12.9648 274.391 12.5883C274.164 12.2119 274.05 11.7771 274.05 11.2838C274.05 10.784 274.164 10.3492 274.391 9.97923C274.624 9.60279 274.936 9.31072 275.325 9.10303C275.721 8.89534 276.169 8.79149 276.669 8.79149C277.11 8.79149 277.513 8.88236 277.876 9.06409C278.24 9.23933 278.528 9.51192 278.743 9.88187C278.963 10.2518 279.074 10.7191 279.074 11.2838C279.074 11.842 278.963 12.306 278.743 12.676C278.528 13.0459 278.24 13.325 277.876 13.5132C277.513 13.695 277.11 13.7858 276.669 13.7858ZM276.776 12.968C277.12 12.968 277.425 12.8966 277.691 12.7539C277.957 12.6111 278.165 12.4131 278.314 12.16C278.47 11.9069 278.548 11.6148 278.548 11.2838C278.548 10.9528 278.47 10.6607 278.314 10.4076C278.165 10.1545 277.957 9.95976 277.691 9.82346C277.425 9.68067 277.12 9.60928 276.776 9.60928C276.432 9.60928 276.124 9.68067 275.851 9.82346C275.585 9.95976 275.374 10.1545 275.218 10.4076C275.069 10.6607 274.994 10.9528 274.994 11.2838C274.994 11.6148 275.069 11.9069 275.218 12.16C275.374 12.4131 275.585 12.6111 275.851 12.7539C276.124 12.8966 276.432 12.968 276.776 12.968ZM283.03 14.0584C282.589 14.0584 282.2 13.9773 281.862 13.815C281.531 13.6528 281.272 13.4061 281.083 13.0751C280.902 12.7376 280.811 12.3158 280.811 11.8095V8.84017H281.745V11.7024C281.745 12.2087 281.865 12.5883 282.106 12.8415C282.352 13.0946 282.696 13.2212 283.138 13.2212C283.462 13.2212 283.744 13.1563 283.985 13.0264C284.225 12.8902 284.41 12.6954 284.539 12.4423C284.669 12.1827 284.734 11.8712 284.734 11.5077V8.84017H285.669V14H284.783V12.6078L284.929 12.9778C284.76 13.3218 284.507 13.5879 284.169 13.7761C283.832 13.9643 283.452 14.0584 283.03 14.0584ZM287.059 14V8.84017H287.954V10.2421L287.867 9.89161C288.009 9.53464 288.25 9.26204 288.587 9.07382C288.925 8.8856 289.34 8.79149 289.833 8.79149V9.6969C289.794 9.69041 289.755 9.68716 289.716 9.68716C289.684 9.68716 289.651 9.68716 289.619 9.68716C289.119 9.68716 288.723 9.83644 288.431 10.135C288.139 10.4336 287.993 10.8652 287.993 11.4298V14H287.059ZM292.758 14.0584C292.239 14.0584 291.778 13.9448 291.376 13.7177C290.973 13.4905 290.655 13.179 290.422 12.7831C290.188 12.3807 290.071 11.9263 290.071 11.4201C290.071 10.9073 290.188 10.453 290.422 10.0571C290.655 9.6612 290.973 9.35291 291.376 9.13224C291.778 8.90508 292.239 8.79149 292.758 8.79149C293.271 8.79149 293.728 8.90508 294.131 9.13224C294.54 9.35291 294.858 9.6612 295.085 10.0571C295.319 10.4465 295.435 10.9009 295.435 11.4201C295.435 11.9328 295.319 12.3871 295.085 12.7831C294.858 13.179 294.54 13.4905 294.131 13.7177C293.728 13.9448 293.271 14.0584 292.758 14.0584ZM292.758 13.2406C293.089 13.2406 293.384 13.166 293.644 13.0167C293.91 12.8674 294.118 12.6565 294.267 12.3839C294.416 12.1048 294.491 11.7835 294.491 11.4201C294.491 11.0501 294.416 10.7321 294.267 10.466C294.118 10.1934 293.91 9.98247 293.644 9.8332C293.384 9.68392 293.089 9.60928 292.758 9.60928C292.427 9.60928 292.132 9.68392 291.872 9.8332C291.613 9.98247 291.405 10.1934 291.249 10.466C291.093 10.7321 291.015 11.0501 291.015 11.4201C291.015 11.7835 291.093 12.1048 291.249 12.3839C291.405 12.6565 291.613 12.8674 291.872 13.0167C292.132 13.166 292.427 13.2406 292.758 13.2406Z" fill="white"></path><path d="M198.5 41.4173C198.5 41.4173 216.417 37.834 216.417 10.959L198.5 5.58398L180.583 10.959C180.583 39.6256 198.5 41.4173 198.5 41.4173ZM206.409 18.1257L196.708 27.8257L190.591 21.709L193.125 19.1756L196.708 22.7589L203.875 15.5922L206.409 18.1257Z" fill="white"></path></svg>